<?xml version="1.0" encoding="utf-8"?>
<!-- Generator: Adobe Illustrator 16.0.0, SVG Export Plug-In . SVG Version: 6.00 Build 0)  -->
<!DOCTYPE svg PUBLIC "-//W3C//DTD SVG 1.1//EN" "http://www.w3.org/Graphics/SVG/1.1/DTD/svg11.dtd">
<svg version="1.1" id="Layer_1" xmlns="http://www.w3.org/2000/svg" xmlns:xlink="http://www.w3.org/1999/xlink" x="0px" y="0px"
	 width="136.913px" height="136.914px" viewBox="0 0 136.913 136.914" enable-background="new 0 0 136.913 136.914"
	 xml:space="preserve">
<g>
	<g>
		<g>
			<circle fill="#6EC2CB" cx="68.456" cy="68.456" r="63.333"/>
		</g>
	</g>
	<g>
		<g>
			<g>
				<path fill="#E9E4B1" d="M102.93,49.094H33.459c-5.135,0-8.365,3.231-8.365,8.364V94.44c0,5.135,3.23,8.367,8.365,8.367h69.471
					c5.137,0,8.369-3.232,8.369-8.367V57.458C111.299,52.326,108.066,49.094,102.93,49.094z M70.193,57.444
					c0.004-0.002,0.021-0.007,0.021-0.007c-0.023,0.018-0.051,0.03-0.076,0.048c-0.055,0.041-0.113,0.073-0.17,0.109
					c-0.102,0.064-0.205,0.121-0.316,0.172c-0.061,0.029-0.123,0.058-0.188,0.082c-0.119,0.049-0.242,0.084-0.367,0.115
					c-0.061,0.016-0.115,0.033-0.176,0.041c-0.189,0.038-0.381,0.061-0.578,0.061c-1.715,0-3.105-1.391-3.105-3.105
					s1.391-3.105,3.105-3.105s3.105,1.391,3.105,3.105C71.449,55.979,70.951,56.874,70.193,57.444z"/>
				<path fill="#FFFFFF" d="M69.098,57.963c-0.061,0.016-0.115,0.033-0.176,0.041C68.982,57.997,69.037,57.979,69.098,57.963z"/>
				<path fill="#FFFFFF" d="M70.139,57.485c-0.055,0.041-0.113,0.073-0.17,0.109C70.025,57.558,70.084,57.526,70.139,57.485z"/>
				<path fill="#FFFFFF" d="M69.652,57.766c-0.061,0.029-0.123,0.06-0.188,0.082C69.529,57.824,69.592,57.795,69.652,57.766z"/>
				<path fill="#58595A" d="M68.344,58.065c0.197,0,0.389-0.022,0.578-0.061c0.061-0.008,0.115-0.025,0.176-0.041
					c0.125-0.031,0.248-0.068,0.367-0.115c0.064-0.022,0.127-0.053,0.188-0.082c0.111-0.051,0.215-0.107,0.316-0.172
					c0.057-0.036,0.115-0.068,0.17-0.109c0.02-0.013,0.035-0.03,0.055-0.041c-0.121,0.023-1.785,0.367-3.045-0.363
					c-1.357-0.789-1.91-2.121-1.91-2.121C65.238,56.674,66.629,58.065,68.344,58.065z"/>
				<path fill="#FFFFFF" d="M68.922,58.004c-0.189,0.038-0.381,0.061-0.578,0.061C68.541,58.065,68.732,58.042,68.922,58.004z"/>
				<path fill="#FFFFFF" d="M70.215,57.437c0,0-0.018,0.005-0.021,0.007c-0.02,0.011-0.035,0.028-0.055,0.041
					C70.164,57.467,70.191,57.455,70.215,57.437z"/>
				<path fill="#FFFFFF" d="M69.465,57.848c-0.119,0.047-0.242,0.084-0.367,0.115C69.223,57.932,69.346,57.897,69.465,57.848z"/>
				<path fill="#FFFFFF" d="M69.969,57.594c-0.102,0.064-0.205,0.121-0.316,0.172C69.764,57.715,69.867,57.659,69.969,57.594z"/>
			</g>
			<g>
				<defs>
					<path id="SVGID_15_" d="M105.965,94.838c0,1.571-1.273,2.842-2.844,2.842H82.637c-1.568,0-2.842-1.271-2.842-2.842V69.47
						c0-1.569,1.273-2.843,2.842-2.843h20.484c1.57,0,2.844,1.273,2.844,2.843V94.838z"/>
				</defs>
				<clipPath id="SVGID_2_">
					<use xlink:href="#SVGID_15_"  overflow="visible"/>
				</clipPath>
				<path clip-path="url(#SVGID_2_)" fill="#90B9C0" d="M105.965,94.838c0,1.571-1.273,2.842-2.844,2.842H82.637
					c-1.568,0-2.842-1.271-2.842-2.842V69.47c0-1.569,1.273-2.843,2.842-2.843h20.484c1.57,0,2.844,1.273,2.844,2.843V94.838z"/>
				<path clip-path="url(#SVGID_2_)" fill="#FFFFFF" d="M94.979,88.637v-1.678c2.461-1.064,4.105-3.855,4.404-7.279
					c0.443-0.194,0.779-0.859,0.779-1.688c0-0.946-0.432-1.704-0.975-1.753c-0.754-3.338-3.152-5.058-6.424-5.058
					c-3.27,0-5.699,1.72-6.465,5.058c-0.543,0.045-0.977,0.807-0.977,1.753c0,0.829,0.334,1.492,0.779,1.688
					c0.299,3.404,1.951,6.186,4.398,7.264v1.695c-7.566,0.111-9,0.978-9,6.515v4.147h22.574v-4.147
					C104.074,89.594,102.598,88.744,94.979,88.637z"/>
			</g>
			<rect x="32.465" y="67.313" fill="#5B4F3F" width="39.141" height="4.451"/>
			<rect x="32.465" y="73.792" fill="#5B4F3F" width="39.141" height="1.899"/>
			<g>
				<rect x="54.516" y="79.565" fill="#5B4F3F" width="17.094" height="3.086"/>
				<rect x="32.465" y="79.565" fill="#5B4F3F" width="17.094" height="3.086"/>
			</g>
		</g>
		<g>
			<g>
				<g>
					<path fill="#58595A" d="M73.854,49.082c0.396-0.782,0.623-1.665,0.623-2.599c0-1.219-2.471-2.138-5.744-2.138
						c-3.277,0-5.746,0.919-5.746,2.138c0,3.168,2.576,5.745,5.744,5.745c0.305,0,0.605-0.024,0.896-0.069
						c0,0,0.346,0.121,0.74,0.457c0.285,0.244,0.594,0.68,0.594,0.68c-0.703,0.223-1.453,0.344-2.23,0.344
						c-4.066,0-7.375-3.309-7.375-7.377c0-2.299,3.705-3.327,7.377-3.327s7.375,1.028,7.375,3.327c0,0.999-0.199,1.951-0.561,2.82
						L73.854,49.082z"/>
					<path fill="#58595A" d="M73.854,49.082c0.396-0.782,0.623-1.665,0.623-2.599c0-1.219-2.471-2.138-5.744-2.138
						c-3.277,0-5.746,0.919-5.746,2.138c0,3.168,2.576,5.745,5.744,5.745c0.305,0,0.605-0.024,0.896-0.069
						c0,0,0.346,0.121,0.74,0.457c0.285,0.244,0.594,0.68,0.594,0.68c-0.703,0.223-1.453,0.344-2.23,0.344
						c-4.066,0-7.375-3.309-7.375-7.377c0-2.299,3.705-3.327,7.377-3.327s7.375,1.028,7.375,3.327c0,0.999-0.199,1.951-0.561,2.82
						L73.854,49.082z"/>
					<path fill="#58595A" d="M73.854,49.082c0.396-0.782,0.623-1.665,0.623-2.599c0-1.219-2.471-2.138-5.744-2.138
						c-3.277,0-5.746,0.919-5.746,2.138c0,3.168,2.576,5.745,5.744,5.745c0.305,0,0.605-0.024,0.896-0.069
						c0,0,0.346,0.121,0.74,0.457c0.285,0.244,0.594,0.68,0.594,0.68c-0.703,0.223-1.453,0.344-2.23,0.344
						c-4.066,0-7.375-3.309-7.375-7.377c0-2.299,3.705-3.327,7.377-3.327s7.375,1.028,7.375,3.327c0,0.999-0.199,1.951-0.561,2.82
						L73.854,49.082z"/>
				</g>
			</g>
			<path fill="#CE2F2E" d="M74.787,44.167c0,0.794-1.234,1.438-2.754,1.438h-6.486c-1.521,0-2.754-0.644-2.754-1.438l0,0
				c0-0.793,1.232-1.436,2.754-1.436h6.486C73.553,42.731,74.787,43.374,74.787,44.167L74.787,44.167z"/>
			<g>
				<path fill="#AD2728" d="M69.061,32.6c0.83,4.059,2.041,8.203,3.785,12.188h0.191c7.357-18.206,7.221-32.943,6.793-38.625
					c-3.156-0.573-6.395-0.91-9.695-0.996C70.604,9.172,71.535,20.501,69.061,32.6z"/>
				<path fill="#CE2F2E" d="M65.082,44.788h0.193c1.744-3.984,2.955-8.129,3.785-12.188c-2.482-12.133-1.537-23.488-1.07-27.465
					c-3.295,0.023-6.527,0.299-9.684,0.809C57.867,11.458,57.631,26.342,65.082,44.788z"/>
				<path fill="#CE2F2E" d="M65.275,44.788h7.57c-1.744-3.984-2.955-8.129-3.785-12.188C68.23,36.659,67.02,40.803,65.275,44.788z"
					/>
			</g>
		</g>
		<g>
			<path opacity="0.25" fill="#EFEFEF" d="M33.379,49.094c-5.137,0-8.367,3.231-8.367,8.364V94.44c0,5.135,3.23,8.367,8.367,8.367
				h57.66L37.328,49.094H33.379z"/>
			<path fill="#D7D7D7" d="M70.139,57.485c0.025-0.018,0.053-0.03,0.076-0.048c0,0-0.018,0.005-0.021,0.007
				C70.174,57.455,70.158,57.472,70.139,57.485z"/>
		</g>
	</g>
</g>
</svg>
