<?xml version="1.0" encoding="utf-8"?>
<!-- Generator: Adobe Illustrator 16.0.0, SVG Export Plug-In . SVG Version: 6.00 Build 0)  -->
<!DOCTYPE svg PUBLIC "-//W3C//DTD SVG 1.1//EN" "http://www.w3.org/Graphics/SVG/1.1/DTD/svg11.dtd">
<svg version="1.1" id="Layer_1" xmlns="http://www.w3.org/2000/svg" xmlns:xlink="http://www.w3.org/1999/xlink" x="0px" y="0px"
	 width="136.913px" height="136.914px" viewBox="0 0 136.913 136.914" enable-background="new 0 0 136.913 136.914"
	 xml:space="preserve">
<g>
	<g>
		<g>
			<circle fill="#3CB881" cx="68.456" cy="68.458" r="63.333"/>
		</g>
	</g>
	<g>
		<g>
			<path fill="#CC3432" d="M77.652,108.973l-8.973-6.379l20.484,14.561c0.189,0.137,0.416,0.207,0.645,0.207
				c0.174,0,0.35-0.041,0.512-0.125c0.369-0.189,0.602-0.572,0.604-0.99L90.922,9.237c-4.227-1.604-8.666-2.771-13.27-3.441V108.973
				z"/>
		</g>
		<g>
			<path fill="#CC3432" d="M47.041,117.237c0.369,0.191,0.816,0.16,1.156-0.082l11.125-7.908V5.788
				c-4.463,0.645-8.775,1.75-12.885,3.273v107.186C46.438,116.665,46.672,117.045,47.041,117.237z"/>
		</g>
		<g>
			<polygon fill="#B42928" points="59.322,109.247 68.68,102.594 59.322,109.247 			"/>
		</g>
		<g>
			<path fill="#B42928" d="M77.652,5.795c-3.002-0.438-6.072-0.672-9.197-0.672c-3.102,0-6.15,0.232-9.133,0.664v103.459
				l9.357-6.652l8.973,6.379V5.795z"/>
		</g>
	</g>
	<g>
		<path fill="#DDA027" d="M84.973,59.932c-0.09-0.279-0.328-0.482-0.619-0.525l-10.352-1.504l-4.633-9.383
			c-0.256-0.523-1.119-0.523-1.379,0.002l-4.631,9.381l-10.352,1.504c-0.289,0.043-0.529,0.246-0.619,0.523
			c-0.092,0.279-0.018,0.584,0.191,0.789l7.494,7.301l-1.77,10.313c-0.049,0.287,0.068,0.58,0.307,0.754
			c0.236,0.17,0.551,0.193,0.811,0.057l9.258-4.869l9.262,4.869c0.113,0.059,0.234,0.088,0.357,0.088
			c0.156,0,0.316-0.049,0.451-0.146c0.238-0.172,0.355-0.463,0.305-0.752l-1.768-10.311l7.492-7.303
			C84.988,60.516,85.063,60.211,84.973,59.932z"/>
	</g>
</g>
</svg>
