<?xml version="1.0" encoding="utf-8"?>
<!-- Generator: Adobe Illustrator 16.0.0, SVG Export Plug-In . SVG Version: 6.00 Build 0)  -->
<!DOCTYPE svg PUBLIC "-//W3C//DTD SVG 1.1//EN" "http://www.w3.org/Graphics/SVG/1.1/DTD/svg11.dtd">
<svg version="1.1" id="Layer_1" xmlns="http://www.w3.org/2000/svg" xmlns:xlink="http://www.w3.org/1999/xlink" x="0px" y="0px"
	 width="136.913px" height="136.913px" viewBox="0 0 136.913 136.913" enable-background="new 0 0 136.913 136.913"
	 xml:space="preserve">
<g>
	<g>
		<circle fill="#67B8CB" cx="68.457" cy="68.455" r="63.333"/>
	</g>
	<g>
		<g>
			
				<rect x="42.623" y="33.656" transform="matrix(0.9875 -0.1577 0.1577 0.9875 -10.4391 11.9672)" fill="#E8E7E7" width="55.139" height="76.221"/>
		</g>
		<g>
			
				<rect x="39.896" y="36.382" transform="matrix(0.9997 0.0254 -0.0254 0.9997 1.9164 -1.6918)" fill="#FFFFFF" width="55.139" height="76.222"/>
		</g>
		<path fill="#4B4A4B" d="M80.757,44.195V31.141c0-5.541-3.035-8.854-8.328-9.082c-5.861,0.162-9.045,3.371-9.045,9.033l0.008,3.084
			l2.355-0.432l-0.006-2.652c-0.002-4.428,2.119-6.553,6.67-6.678c4.004,0.178,5.99,2.377,5.99,6.727v13.432l-0.002,27.568
			c0.002,3.145-3.15,4.162-4.678,4.162c-1.076,0.045-2.111-0.354-2.891-1.1c-0.826-0.789-1.283-1.891-1.281-3.1V45.986l-2.355,0.375
			v25.742c0,1.861,0.713,3.566,2.01,4.805c1.24,1.188,2.908,1.826,4.572,1.75c2.869,0.002,6.98-2.021,6.98-6.518V44.195z"/>
	</g>
</g>
</svg>
