<?xml version="1.0" encoding="utf-8"?>
<!-- Generator: Adobe Illustrator 16.0.0, SVG Export Plug-In . SVG Version: 6.00 Build 0)  -->
<!DOCTYPE svg PUBLIC "-//W3C//DTD SVG 1.1//EN" "http://www.w3.org/Graphics/SVG/1.1/DTD/svg11.dtd">
<svg version="1.1" id="Layer_1" xmlns="http://www.w3.org/2000/svg" xmlns:xlink="http://www.w3.org/1999/xlink" x="0px" y="0px"
	 width="136.914px" height="136.914px" viewBox="0 0 136.914 136.914" enable-background="new 0 0 136.914 136.914"
	 xml:space="preserve">
<g>
	<g>
		<g>
			<g>
				<circle fill="#EB9682" cx="68.457" cy="68.458" r="63.333"/>
			</g>
		</g>
	</g>
	<g>
		<path fill="#B03738" d="M47.872,108.966c0,2.12-1.719,3.84-3.838,3.84h-3.512c-2.119,0-3.838-1.72-3.838-3.84V27.948
			c0-2.121,1.719-3.84,3.838-3.84h3.512c2.119,0,3.838,1.719,3.838,3.84V108.966z"/>
		<circle fill="#E84849" stroke="#FFFFFF" stroke-width="3" cx="42.13" cy="40.845" r="8.482"/>
		<path fill="#B03738" d="M74.198,108.966c0,2.12-1.719,3.84-3.838,3.84h-3.512c-2.119,0-3.838-1.72-3.838-3.84V27.948
			c0-2.121,1.719-3.84,3.838-3.84h3.512c2.119,0,3.838,1.719,3.838,3.84V108.966z"/>
		<circle fill="#E84849" stroke="#FFFFFF" stroke-width="3" cx="68.458" cy="93.498" r="8.482"/>
		<path fill="#B03738" d="M100.524,108.966c0,2.12-1.719,3.84-3.838,3.84h-3.512c-2.119,0-3.838-1.72-3.838-3.84V27.948
			c0-2.121,1.719-3.84,3.838-3.84h3.512c2.119,0,3.838,1.719,3.838,3.84V108.966z"/>
		<circle fill="#E84849" stroke="#FFFFFF" stroke-width="3" cx="94.784" cy="58.396" r="8.482"/>
	</g>
</g>
</svg>
