<?xml version="1.0" ?><!DOCTYPE svg  PUBLIC '-//W3C//DTD SVG 1.0//EN'  'http://www.w3.org/TR/2001/REC-SVG-20010904/DTD/svg10.dtd'><svg enable-background="new 0 0 32 32" height="32px" id="Layer_1" version="1.0" viewBox="0 0 32 32" width="32px" xml:space="preserve" xmlns="http://www.w3.org/2000/svg" xmlns:xlink="http://www.w3.org/1999/xlink"><g><path d="M31.077,19.399c0.232-1.041,0.356-2.12,0.356-3.229c0-8.31-6.836-15.047-15.27-15.047   c-0.893,0-1.764,0.076-2.613,0.22c-1.364-0.847-2.979-1.338-4.711-1.338c-4.891,0-8.855,3.906-8.855,8.725   c0,1.61,0.446,3.119,1.217,4.414c-0.202,0.978-0.308,1.989-0.308,3.026c0,8.31,6.835,15.046,15.271,15.046   c0.954,0,1.888-0.087,2.793-0.253C20.204,31.624,21.63,32,23.145,32C28.035,32,32,28.094,32,23.274   C32,21.881,31.668,20.566,31.077,19.399z" fill="#00AAF1"/><path d="M11.934,6.704L11.934,6.704c-1.146,0.469-2.038,1.154-2.648,2.035c-0.616,0.887-0.928,1.915-0.928,3.057   c0,1.197,0.297,2.216,0.883,3.026c0.578,0.8,1.366,1.438,2.345,1.899c0.957,0.449,2.159,0.848,3.578,1.184   c1.042,0.241,1.883,0.472,2.503,0.687c0.596,0.205,1.087,0.504,1.458,0.889c0.353,0.367,0.526,0.836,0.526,1.433   c0,0.755-0.33,1.37-1.011,1.884c-0.695,0.525-1.619,0.793-2.75,0.793c-0.819,0-1.486-0.133-1.981-0.391   c-0.493-0.258-0.877-0.588-1.145-0.979c-0.277-0.408-0.542-0.925-0.784-1.539c-0.217-0.562-0.485-0.998-0.801-1.292   c-0.328-0.308-0.734-0.464-1.203-0.464c-0.569,0-1.049,0.196-1.424,0.587c-0.376,0.392-0.568,0.872-0.568,1.426   c0,0.885,0.294,1.804,0.874,2.728c0.573,0.917,1.33,1.66,2.246,2.207c1.284,0.754,2.928,1.135,4.888,1.135   c1.632,0,3.067-0.279,4.266-0.829c1.209-0.557,2.142-1.339,2.772-2.329c0.635-0.992,0.955-2.126,0.955-3.37   c0-1.04-0.186-1.934-0.555-2.659c-0.367-0.722-0.886-1.327-1.538-1.798c-0.641-0.462-1.428-0.859-2.337-1.18   c-0.896-0.319-1.91-0.612-3.017-0.875c-0.873-0.224-1.51-0.395-1.889-0.511c-0.369-0.114-0.739-0.273-1.098-0.471   c-0.346-0.192-0.621-0.424-0.814-0.685c-0.184-0.248-0.273-0.535-0.273-0.88c0-0.562,0.277-1.033,0.847-1.447   c0.591-0.43,1.388-0.646,2.365-0.646c1.054,0,1.82,0.195,2.279,0.581c0.474,0.396,0.885,0.962,1.225,1.677   c0.294,0.561,0.561,0.95,0.815,1.2c0.275,0.269,0.669,0.405,1.177,0.405c0.555,0,1.025-0.218,1.398-0.647   c0.373-0.428,0.562-0.918,0.562-1.458c0-0.561-0.144-1.141-0.427-1.723c-0.28-0.575-0.728-1.132-1.328-1.65   c-0.597-0.515-1.354-0.935-2.253-1.244c-0.896-0.308-1.968-0.464-3.186-0.464C14.413,6.005,13.067,6.24,11.934,6.704z" fill="#FFFFFF"/></g><g/><g/><g/><g/><g/><g/></svg>